<svg xmlns="http://www.w3.org/2000/svg" width="0" height="0">
  <symbol id="arrow" viewBox="0 0 40 40" fill="none">
    <path d="M28.5 37L11.5 20L28.5 3" stroke-linecap="round" stroke-linejoin="round"/>
  </symbol>

  <symbol id="close" viewBox="0 0 16 16" fill="none">
    <path d="M1.45329 15.3397L15.3383 1.45465M1.45312 1.45459L15.3381 15.3396" stroke-linecap="round"/>
  </symbol>

  <svg id="checkmark" viewBox="0 0 32 32" fill="none" xmlns="http://www.w3.org/2000/svg">
    <path d="M7 15.0417L12.973 21L24 10"/>
  </svg>

  <svg id="chevron" xmlns="http://www.w3.org/2000/svg" viewBox="0 0 24 24" fill="none">
    <path fill-rule="evenodd" clip-rule="evenodd" d="M11.875 14.1772L6.16893 9L5 10.2622L11.875 16.5L18.75 10.2622L17.5811 9L11.875 14.1772Z"/>
  </svg>

  <svg id="excl" viewBox="0 0 20 20" fill="transparent" xmlns="http://www.w3.org/2000/svg">
    <path fill-rule="evenodd" clip-rule="evenodd" d="M10 20C15.5228 20 20 15.5228 20 10C20 4.47715 15.5228 0 10 0C4.47715 0 0 4.47715 0 10C0 15.5228 4.47715 20 10 20ZM8.49182 5.98433C8.49182 6.45612 8.64567 6.82535 8.95336 7.09202C9.26105 7.35869 9.62003 7.48689 10.0303 7.47664C10.4405 7.46638 10.7893 7.33305 11.0764 7.07664C11.3739 6.80997 11.5226 6.44587 11.5226 5.98433C11.5226 5.52279 11.3739 5.16382 11.0764 4.9074C10.7893 4.651 10.4405 4.51766 10.0303 4.50741C9.60977 4.49715 9.24567 4.62535 8.93797 4.89202C8.64054 5.14843 8.49182 5.51253 8.49182 5.98433ZM11.3072 15.3843V8.74969H8.70721L8.69182 15.3843H11.3072Z"/>
  </svg>
</svg>
